<?xml version="1.0" encoding="UTF-8" standalone="no"?>
<!-- Created with Inkscape (http://www.inkscape.org/) -->

<svg
   width="128.23473mm"
   height="128.23473mm"
   viewBox="0 0 128.23473 128.23473"
   version="1.1"
   id="svg1"
   xml:space="preserve"
   sodipodi:docname="logo.svg"
   inkscape:version="1.4.2 (ebf0e940d0, 2025-05-08)"
   inkscape:export-filename="upplysning_logo.webp"
   inkscape:export-xdpi="96"
   inkscape:export-ydpi="96"
   xmlns:inkscape="http://www.inkscape.org/namespaces/inkscape"
   xmlns:sodipodi="http://sodipodi.sourceforge.net/DTD/sodipodi-0.dtd"
   xmlns:xlink="http://www.w3.org/1999/xlink"
   xmlns="http://www.w3.org/2000/svg"
   xmlns:svg="http://www.w3.org/2000/svg"><sodipodi:namedview
     id="namedview1"
     pagecolor="#505050"
     bordercolor="#eeeeee"
     borderopacity="1"
     inkscape:showpageshadow="0"
     inkscape:pageopacity="0"
     inkscape:pagecheckerboard="0"
     inkscape:deskcolor="#505050"
     inkscape:document-units="mm"
     inkscape:zoom="0.7940972"
     inkscape:cx="287.74815"
     inkscape:cy="389.12113"
     inkscape:window-width="2560"
     inkscape:window-height="1371"
     inkscape:window-x="0"
     inkscape:window-y="0"
     inkscape:window-maximized="1"
     inkscape:current-layer="svg1"
     showguides="false" /><defs
     id="defs1"><style
       id="style1">.cls-1{fill:none;stroke:#020202;stroke-miterlimit:10;stroke-width:1.91px;}</style></defs><g
     id="g12"
     transform="matrix(0.03527778,0,0,-0.03527778,-0.6085417,128.45522)"
     inkscape:label="Lysator Logo"
     style="display:inline"><path
       d="m 1835.25,6.2500307 c 1003.38,0.2383 1817.01,813.8709993 1817,1817.9999693 0.01,1003.14 -813.62,1816.76 -1817,1817 C 831.359,3641.01 17.7305,2827.39 17.25,1824.25 17.7305,820.12103 831.359,6.4883307 1835.25,6.2500307"
       style="display:inline;fill:#000000;fill-opacity:1;fill-rule:nonzero;stroke:none"
       id="path14"
       inkscape:label="Svart bakgrundscirkel" /><path
       d="m 705.25,669.25 c -5.25,-0.5 0,75 0,75 0,0 124.75,14.5 170,65 44.75,49.5 69.75,111.82 70,182 -0.25,77.5 -0.25,902.5 0,983 -0.25,79.5 -0.25,504.5 0,642 -0.25,112.5 22.25,160 102,235 80.25,75 185.25,102.5 275,103 60.46,-0.5 747.52,-0.5 803,0 59.75,-0.5 947,0 947,0 v -78 c 0,0 -102.25,-7.5 -152,-52 -50.25,-45.5 -105.25,-105.5 -105,-215 -0.25,-110.5 -0.25,-855.5 0,-940 -0.25,-85.5 -0.25,-568 0,-653 -0.25,-85 4.75,-142.5 -60,-212 -65.25,-70.5 -170.25,-135.5 -255,-135 -85.25,-0.5 -775.25,-0.5 -870,0 -95.25,-0.5 -925,0 -925,0"
       style="display:inline;fill:#0ff;fill-opacity:1;fill-rule:nonzero;stroke:none"
       id="path16"
       inkscape:label="Bakgrund Gula" /><g
       id="g34"
       transform="scale(10)"
       style="display:none"
       inkscape:label="Cirkulär Text"><text
         xml:space="preserve"
         transform="matrix(-0.22023463,0.89827857,0.97544693,0.2028926,42,134.875)"
         style="font-variant:normal;font-weight:bold;font-size:34.1105px;font-family:Helvetica;-inkscape-font-specification:Helvetica-Bold;writing-mode:lr-tb;fill:#0ff;fill-opacity:1;fill-rule:nonzero;stroke:none"
         id="text38"><tspan
           x="0"
           y="0"
           id="tspan36">L</tspan></text><text
         xml:space="preserve"
         transform="matrix(-0.04781294,0.92583293,0.99885631,0.01564791,37,173.875)"
         style="font-variant:normal;font-weight:bold;font-size:34.0217px;font-family:Helvetica;-inkscape-font-specification:Helvetica-Bold;writing-mode:lr-tb;fill:#0ff;fill-opacity:1;fill-rule:nonzero;stroke:none"
         id="text42"><tspan
           x="0"
           y="0"
           id="tspan40">I</tspan></text><text
         xml:space="preserve"
         transform="matrix(0.19171695,0.91813121,0.98145026,-0.24184495,37.8371,201.764)"
         style="font-variant:normal;font-weight:bold;font-size:33.6306px;font-family:Helvetica;-inkscape-font-specification:Helvetica-Bold;writing-mode:lr-tb;fill:#0ff;fill-opacity:1;fill-rule:nonzero;stroke:none"
         id="text46"><tspan
           x="0"
           y="0"
           id="tspan44">N</tspan></text><text
         xml:space="preserve"
         transform="matrix(0.37738247,0.87342062,0.92605749,-0.43983256,51,243.875)"
         style="font-variant:normal;font-weight:bold;font-size:33.1512px;font-family:Helvetica;-inkscape-font-specification:Helvetica-Bold;writing-mode:lr-tb;fill:#0ff;fill-opacity:1;fill-rule:nonzero;stroke:none"
         id="text50"><tspan
           x="0"
           y="0"
           id="tspan48">K</tspan></text><text
         xml:space="preserve"
         transform="matrix(0.61195639,0.72686474,0.75893242,-0.68678065,73,274.875)"
         style="font-variant:normal;font-weight:bold;font-size:33.2029px;font-family:Helvetica;-inkscape-font-specification:Helvetica-Bold;writing-mode:lr-tb;fill:#0ff;fill-opacity:1;fill-rule:nonzero;stroke:none"
         id="text54"><tspan
           x="0"
           y="0"
           id="tspan52">Ö</tspan></text><text
         xml:space="preserve"
         transform="matrix(0.74986458,0.55954829,0.57358054,-0.82879775,106,303.875)"
         style="font-variant:normal;font-weight:bold;font-size:33.7227px;font-family:Helvetica;-inkscape-font-specification:Helvetica-Bold;writing-mode:lr-tb;fill:#0ff;fill-opacity:1;fill-rule:nonzero;stroke:none"
         id="text58"><tspan
           x="0"
           y="0"
           id="tspan56">P</tspan></text><text
         xml:space="preserve"
         transform="matrix(0.88463697,0.27059452,0.25758545,-0.96269341,143,321.875)"
         style="font-variant:normal;font-weight:bold;font-size:34.1016px;font-family:Helvetica;-inkscape-font-specification:Helvetica-Bold;writing-mode:lr-tb;fill:#0ff;fill-opacity:1;fill-rule:nonzero;stroke:none"
         id="text62"><tspan
           x="0"
           y="0"
           id="tspan60">I</tspan></text><text
         xml:space="preserve"
         transform="matrix(0.92740339,0.0278395,-0.00521991,-0.99961241,172.5,328.375)"
         style="font-variant:normal;font-weight:bold;font-size:33.996px;font-family:Helvetica;-inkscape-font-specification:Helvetica-Bold;writing-mode:lr-tb;fill:#0ff;fill-opacity:1;fill-rule:nonzero;stroke:none"
         id="text66"><tspan
           x="0"
           y="0"
           id="tspan64">N</tspan></text><text
         xml:space="preserve"
         transform="matrix(0.89583346,-0.30422867,-0.3618808,-0.95259903,212,327.875)"
         style="font-variant:normal;font-weight:bold;font-size:33.3452px;font-family:Helvetica;-inkscape-font-specification:Helvetica-Bold;writing-mode:lr-tb;fill:#0ff;fill-opacity:1;fill-rule:nonzero;stroke:none"
         id="text70"><tspan
           x="0"
           y="0"
           id="tspan68">G</tspan></text><text
         xml:space="preserve"
         transform="matrix(0.25458051,0.90694262,0.96705158,-0.30938637,346.5,124.375)"
         style="font-variant:normal;font-weight:bold;font-size:33.4585px;font-family:Helvetica;-inkscape-font-specification:Helvetica-Bold;writing-mode:lr-tb;fill:#0ff;fill-opacity:1;fill-rule:nonzero;stroke:none"
         id="text74"><tspan
           x="0"
           y="0"
           id="tspan72">I</tspan></text><text
         xml:space="preserve"
         transform="matrix(0.92643738,0.03131623,-8.6989513e-4,-0.99950953,180.5,8.875)"
         style="font-variant:normal;font-weight:bold;font-size:33.9995px;font-family:Helvetica;-inkscape-font-specification:Helvetica-Bold;writing-mode:lr-tb;fill:#0ff;fill-opacity:1;fill-rule:nonzero;stroke:none"
         id="text78"><tspan
           x="0"
           y="0"
           id="tspan76">I</tspan></text><text
         xml:space="preserve"
         transform="matrix(0.91033412,-0.23464083,-0.28756741,-0.97208214,132,16.375)"
         style="font-variant:normal;font-weight:bold;font-size:33.5288px;font-family:Helvetica;-inkscape-font-specification:Helvetica-Bold;writing-mode:lr-tb;fill:#0ff;fill-opacity:1;fill-rule:nonzero;stroke:none"
         id="text82"><tspan
           x="0"
           y="0"
           id="tspan80">N</tspan></text><text
         xml:space="preserve"
         transform="matrix(0.85885081,-0.41755817,-0.4826726,-0.90865019,93.607,32.8105)"
         style="font-variant:normal;font-weight:bold;font-size:33.0214px;font-family:Helvetica;-inkscape-font-specification:Helvetica-Bold;writing-mode:lr-tb;fill:#0ff;fill-opacity:1;fill-rule:nonzero;stroke:none"
         id="text86"><tspan
           x="0"
           y="0"
           id="tspan84">U</tspan></text><text
         xml:space="preserve"
         transform="matrix(0.8954,0.22994379,0.21302951,-0.97320391,215.905,10.4348)"
         style="font-variant:normal;font-weight:bold;font-size:34.098px;font-family:Helvetica;-inkscape-font-specification:Helvetica-Bold;writing-mode:lr-tb;fill:#0ff;fill-opacity:1;fill-rule:nonzero;stroke:none"
         id="text90"><tspan
           x="0"
           y="0"
           id="tspan88">V</tspan></text><text
         xml:space="preserve"
         transform="matrix(0.80860759,0.45938282,0.46374357,-0.88823838,259.415,25.009)"
         style="font-variant:normal;font-weight:bold;font-size:33.91px;font-family:Helvetica;-inkscape-font-specification:Helvetica-Bold;writing-mode:lr-tb;fill:#0ff;fill-opacity:1;fill-rule:nonzero;stroke:none"
         id="text94"><tspan
           x="0"
           y="0"
           id="tspan92">E</tspan></text><text
         xml:space="preserve"
         transform="matrix(0.67256265,0.66194354,0.68672247,-0.7495537,295.5,48.875)"
         style="font-variant:normal;font-weight:bold;font-size:33.4211px;font-family:Helvetica;-inkscape-font-specification:Helvetica-Bold;writing-mode:lr-tb;fill:#0ff;fill-opacity:1;fill-rule:nonzero;stroke:none"
         id="text98"><tspan
           x="0"
           y="0"
           id="tspan96">R</tspan></text><text
         xml:space="preserve"
         transform="matrix(0.47758936,0.83352832,0.87858318,-0.5469745,327.5,84.875)"
         style="font-variant:normal;font-weight:bold;font-size:32.8206px;font-family:Helvetica;-inkscape-font-specification:Helvetica-Bold;writing-mode:lr-tb;fill:#0ff;fill-opacity:1;fill-rule:nonzero;stroke:none"
         id="text102"><tspan
           x="0"
           y="0"
           id="tspan100">S</tspan></text><text
         xml:space="preserve"
         transform="matrix(0.07515929,0.92900317,0.99717154,-0.1162352,355.65,157.992)"
         style="font-variant:normal;font-weight:bold;font-size:33.8419px;font-family:Helvetica;-inkscape-font-specification:Helvetica-Bold;writing-mode:lr-tb;fill:#0ff;fill-opacity:1;fill-rule:nonzero;stroke:none"
         id="text106"><tspan
           x="0"
           y="0"
           id="tspan104">T</tspan></text><text
         xml:space="preserve"
         transform="matrix(-0.16330237,0.91008573,0.98657607,0.14092691,356.184,199.161)"
         style="font-variant:normal;font-weight:bold;font-size:34.1023px;font-family:Helvetica;-inkscape-font-specification:Helvetica-Bold;writing-mode:lr-tb;fill:#0ff;fill-opacity:1;fill-rule:nonzero;stroke:none"
         id="text110"><tspan
           x="0"
           y="0"
           id="tspan108">Y</tspan></text></g></g><g
     id="g1462"
     inkscape:label="Kärnminnet på svart"
     transform="matrix(0.03527778,0,0,-0.03527778,-0.6085417,128.45522)"><path
       d="m 2825.25,2859.25 c 0,0 -810.25,-0.5 -920,0 -161.27,-0.5 -272.75,-100.5 -273,-275 0.25,-115.61 0.25,-693 0,-823 0.25,-120 1.08,-195.83 -52,-262 -40.25,-50.5 -45,-60 -45,-60 0,0 759.75,-0.5 900,0 139.75,-0.5 284.75,92 285,262 -0.25,170 -0.25,770 0,878 -0.25,228.52 105,280 105,280"
       style="display:inline;fill:#000000;fill-opacity:1;fill-rule:nonzero;stroke:none"
       id="path20" /></g><text
     xml:space="preserve"
     style="font-style:normal;font-variant:normal;font-weight:500;font-stretch:normal;font-size:20.418px;line-height:1;font-family:'IBM Plex Mono';-inkscape-font-specification:'IBM Plex Mono Medium';text-align:center;letter-spacing:1.761px;text-anchor:middle;display:inline;fill:#000000;fill-opacity:1;stroke:#000000;stroke-width:0.630395;stroke-dasharray:none;stroke-opacity:1"
     x="47.127319"
     y="48.888863"
     id="text1-9"
     transform="scale(0.95263099,1.0497244)"><tspan
       sodipodi:role="line"
       style="font-style:normal;font-variant:normal;font-weight:bold;font-stretch:normal;line-height:1;font-family:NewComputerModernSans10;-inkscape-font-specification:'NewComputerModernSans10 Bold';text-align:center;letter-spacing:1.761px;text-anchor:middle;fill:#000000;fill-opacity:1;stroke:#000000;stroke-width:0.630395;stroke-dasharray:none;stroke-opacity:1"
       x="47.127319"
       y="48.888863"
       id="tspan10">L</tspan><tspan
       sodipodi:role="line"
       style="font-style:normal;font-variant:normal;font-weight:bold;font-stretch:normal;line-height:1;font-family:NewComputerModernSans10;-inkscape-font-specification:'NewComputerModernSans10 Bold';text-align:center;letter-spacing:1.761px;text-anchor:middle;fill:#000000;fill-opacity:1;stroke:#000000;stroke-width:0.630395;stroke-dasharray:none;stroke-opacity:1"
       x="48.00782"
       y="69.73819"
       id="tspan5">A</tspan></text><text
     xml:space="preserve"
     style="font-style:normal;font-variant:normal;font-weight:500;font-stretch:normal;font-size:21.8821px;font-family:'IBM Plex Mono';-inkscape-font-specification:'IBM Plex Mono Medium';letter-spacing:9.26042px;display:inline;opacity:1;fill:#000000;fill-opacity:1;stroke:#000000;stroke-width:0.736889;stroke-dasharray:none;stroke-opacity:1"
     x="41.484024"
     y="96.108101"
     id="text1"
     transform="scale(0.99158984,1.0084815)"><tspan
       sodipodi:role="line"
       id="tspan1"
       style="font-style:normal;font-variant:normal;font-weight:bold;font-stretch:normal;font-family:NewComputerModernSans10;-inkscape-font-specification:'NewComputerModernSans10 Bold';letter-spacing:9.26042px;fill:#000000;fill-opacity:1;stroke:#000000;stroke-width:0.736889;stroke-dasharray:none;stroke-opacity:1"
       x="41.484024"
       y="96.108101">ILa</tspan></text><text
     xml:space="preserve"
     style="font-style:normal;font-variant:normal;font-weight:normal;font-stretch:normal;font-size:4.9389px;font-family:'IBM Plex Mono';-inkscape-font-specification:'IBM Plex Mono';text-align:start;letter-spacing:0px;writing-mode:vertical-lr;direction:ltr;text-orientation:upright;text-anchor:start;fill:#000000;fill-opacity:1;stroke:#000000;stroke-width:0.79375"
     x="74.230316"
     y="41.112171"
     id="text2"><tspan
       sodipodi:role="line"
       id="tspan2"
       style="stroke-width:0.79375;-inkscape-font-specification:'IBM Plex Mono';font-family:'IBM Plex Mono';font-weight:normal;font-style:normal;font-stretch:normal;font-variant:normal"
       x="74.230316"
       y="41.112171" /></text><path
     d="M 70.961942,124.77165 C 103.87852,120.97542 127.48739,91.22691 123.71431,58.299726 119.91349,25.408611 90.164657,1.8000571 57.246229,5.5801331 24.346371,9.3741096 0.73735306,39.122615 4.5228739,72.015497 8.3112902,104.9409 38.060286,128.54987 70.961942,124.77165"
     style="display:none;fill:#ff0000;fill-opacity:0.679379;fill-rule:nonzero;stroke:none;stroke-width:0.0285677"
     id="path14-6-5"
     inkscape:label="temp_ouer"
     inkscape:transform-center-y="2.4217593"
     inkscape:transform-center-x="-0.27536147" /><text
     xml:space="preserve"
     style="font-style:normal;font-variant:normal;font-weight:500;font-stretch:normal;font-size:12.3472px;font-family:'IBM Plex Mono';-inkscape-font-specification:'IBM Plex Mono Medium';text-align:start;letter-spacing:1.32292px;writing-mode:lr-tb;direction:ltr;text-anchor:start;display:inline;fill:#0ff;fill-opacity:1;stroke:none;stroke-width:1.5875;stroke-linecap:round;stroke-linejoin:round"
     id="text3"
     inkscape:transform-center-x="25.271939"
     inkscape:transform-center-y="-47.107273"><textPath
       xlink:href="#path14-6-5"
       id="textPath7"
       style="font-style:normal;font-variant:normal;font-weight:normal;font-stretch:normal;font-family:NewComputerModernSans10;-inkscape-font-specification:NewComputerModernSans10">LYSATOR</textPath></text><g
     id="brain"
     transform="matrix(1.3597191,0,0,1.3597191,60.450259,37.004633)"
     style="fill:none;fill-opacity:1;stroke:#0ff;stroke-opacity:1"><path
       class="cls-1"
       d="M 12,4.36 V 20.59 A 1.92,1.92 0 0 1 10.09,22.5 1.93,1.93 0 0 1 8.18,20.59 v 0 A 2.45,2.45 0 0 1 7.7,20.59 3.35,3.35 0 0 1 4.36,17.25 3.19,3.19 0 0 1 4.44,16.55 4.29,4.29 0 0 1 3.6,8.79 3.24,3.24 0 0 1 3.41,7.7 3.34,3.34 0 0 1 6.27,4.4 v 0 a 2.87,2.87 0 0 1 5.73,0 z"
       id="path1"
       style="fill:none;fill-opacity:1;stroke:#0ff;stroke-opacity:1" /><path
       class="cls-1"
       d="m 6.75,11.05 a 3.35,3.35 0 0 1 0,-6.69"
       id="path2"
       style="fill:none;fill-opacity:1;stroke:#0ff;stroke-opacity:1" /><path
       class="cls-1"
       d="m 8.18,13.91 v 0 A 3.82,3.82 0 0 1 12,17.73 v 0"
       id="path3"
       style="fill:none;fill-opacity:1;stroke:#0ff;stroke-opacity:1" /><path
       class="cls-1"
       d="m 9.14,7.23 v 0 A 2.86,2.86 0 0 0 12,4.36 v 0"
       id="path4"
       style="fill:none;fill-opacity:1;stroke:#0ff;stroke-opacity:1" /><path
       class="cls-1"
       d="m 12,4.36 v 16.23 a 1.92,1.92 0 0 0 1.91,1.91 1.93,1.93 0 0 0 1.91,-1.91 v 0 a 2.45,2.45 0 0 0 0.48,0 3.35,3.35 0 0 0 3.34,-3.34 3.19,3.19 0 0 0 -0.08,-0.7 A 4.29,4.29 0 0 0 20.4,8.79 3.24,3.24 0 0 0 20.59,7.7 3.34,3.34 0 0 0 17.73,4.4 v 0 A 2.87,2.87 0 0 0 12,4.4 Z"
       id="path5"
       style="fill:none;fill-opacity:1;stroke:#0ff;stroke-opacity:1" /><path
       class="cls-1"
       d="m 17.25,11.05 a 3.35,3.35 0 0 0 0,-6.69"
       id="path6"
       style="fill:none;fill-opacity:1;stroke:#0ff;stroke-opacity:1" /><path
       class="cls-1"
       d="m 15.82,13.91 v 0 A 3.82,3.82 0 0 0 12,17.73 v 0"
       id="path7"
       style="fill:none;fill-opacity:1;stroke:#0ff;stroke-opacity:1" /><path
       class="cls-1"
       d="m 14.86,7.23 v 0 A 2.86,2.86 0 0 1 12,4.36 v 0"
       id="path8"
       style="fill:none;fill-opacity:1;stroke:#0ff;stroke-opacity:1" /></g><path
     d="M 15.435134,75.599096 C 8.9470199,48.759934 25.433975,21.744952 52.274822,15.235717 79.095442,8.7585736 106.11036,25.245854 112.61168,52.081828 119.09674,78.907262 102.60985,105.92236 75.792241,112.41202 48.948363,118.90874 21.933088,102.42142 15.435134,75.599096"
     style="display:none;fill:#ff0000;fill-opacity:0.679379;fill-rule:nonzero;stroke:none;stroke-width:0.0285676"
     id="path14-6"
     inkscape:label="temp_inner"
     inkscape:transform-center-y="0.47800473"
     inkscape:transform-center-x="1.9703792" /><text
     xml:space="preserve"
     style="font-style:normal;font-variant:normal;font-weight:500;font-stretch:normal;font-size:12.3472px;font-family:'MonaspiceKr Nerd Font Mono';-inkscape-font-specification:'MonaspiceKr Nerd Font Mono Medium';text-align:start;letter-spacing:0.264583px;writing-mode:lr-tb;direction:ltr;text-anchor:start;fill:#0ff;fill-opacity:1;stroke:none;stroke-width:1.5875;stroke-linecap:round;stroke-linejoin:round"
     id="text6"
     inkscape:transform-center-x="25.271944"
     inkscape:transform-center-y="47.107262"><textPath
       xlink:href="#path14-6"
       id="textPath6"
       style="font-style:normal;font-variant:normal;font-weight:normal;font-stretch:normal;font-family:NewComputerModernSans10;-inkscape-font-specification:NewComputerModernSans10;letter-spacing:0.264583px">DATORFÖRENINGEN</textPath></text></svg>
