<?xml version="1.0" encoding="UTF-8" standalone="no"?>
<!-- Created with Inkscape (http://www.inkscape.org/) -->

<svg
   version="1.1"
   id="svg2"
   width="315.9111"
   height="315.91101"
   viewBox="0 0 315.9111 315.91102"
   sodipodi:docname="logo-no-bg.svg"
   inkscape:version="1.2.1 (9c6d41e410, 2022-07-14, custom)"
   xmlns:inkscape="http://www.inkscape.org/namespaces/inkscape"
   xmlns:sodipodi="http://sodipodi.sourceforge.net/DTD/sodipodi-0.dtd"
   xmlns="http://www.w3.org/2000/svg"
   xmlns:svg="http://www.w3.org/2000/svg">
  <defs
     id="defs6" />
  <sodipodi:namedview
     id="namedview4"
     pagecolor="#ffffff"
     bordercolor="#999999"
     borderopacity="1"
     inkscape:showpageshadow="0"
     inkscape:pageopacity="0"
     inkscape:pagecheckerboard="0"
     inkscape:deskcolor="#d1d1d1"
     showgrid="false"
     inkscape:zoom="1.2624837"
     inkscape:cx="172.27946"
     inkscape:cy="100.19932"
     inkscape:window-width="1322"
     inkscape:window-height="1054"
     inkscape:window-x="1920"
     inkscape:window-y="24"
     inkscape:window-maximized="1"
     inkscape:current-layer="g10">
    <inkscape:page
       x="0"
       y="0"
       id="page8"
       width="315.9111"
       height="315.91101" />
  </sodipodi:namedview>
  <g
     id="g10"
     inkscape:groupmode="layer"
     inkscape:label="Page 1"
     transform="matrix(1.3333333,0,0,-1.3333333,-92.741239,393.89999)"
     style="display:inline">
    <g
       id="g12"
       transform="matrix(0.1,0,0,0.1,-0.73573589,-4.1977501)"
       inkscape:label="Lysator Logo">
      <path
         d="m 705.25,669.25 c -5.25,-0.5 0,75 0,75 0,0 124.75,14.5 170,65 44.75,49.5 69.75,111.82 70,182 -0.25,77.5 -0.25,902.5 0,983 -0.25,79.5 -0.25,504.5 0,642 -0.25,112.5 22.25,160 102,235 80.25,75 185.25,102.5 275,103 60.46,-0.5 747.52,-0.5 803,0 59.75,-0.5 947,0 947,0 v -78 c 0,0 -102.25,-7.5 -152,-52 -50.25,-45.5 -105.25,-105.5 -105,-215 -0.25,-110.5 -0.25,-855.5 0,-940 -0.25,-85.5 -0.25,-568 0,-653 -0.25,-85 4.75,-142.5 -60,-212 -65.25,-70.5 -170.25,-135.5 -255,-135 -85.25,-0.5 -775.25,-0.5 -870,0 -95.25,-0.5 -925,0 -925,0"
         style="display:inline;fill:#ffff00;fill-opacity:1;fill-rule:nonzero;stroke:none"
         id="path16"
         inkscape:label="Bakgrund Gula" />
      <g
         id="g1462"
         inkscape:label="Kärnminnet på svart"
         style="display:inline">
        <path
           d="m 1867.25,2101.25 c -39.75,0 -157,0 -157,0"
           style="display:inline;fill:#ffff00;fill-opacity:1;fill-rule:nonzero;stroke:none"
           id="path18" />
        <path
           d="m 2825.25,2859.25 c 0,0 -810.25,-0.5 -920,0 -161.27,-0.5 -272.75,-100.5 -273,-275 0.25,-115.61 0.25,-693 0,-823 0.25,-120 1.08,-195.83 -52,-262 -40.25,-50.5 -45,-60 -45,-60 0,0 759.75,-0.5 900,0 139.75,-0.5 284.75,92 285,262 -0.25,170 -0.25,770 0,878 -0.25,228.52 105,280 105,280"
           style="display:inline;fill:#000000;fill-opacity:1;fill-rule:nonzero;stroke:none"
           id="path20" />
        <path
           d="m 2050.25,1776.25 c -125.94,27.83 -177.8,211.74 -116,411 61.79,198.92 213.84,337.8 340,310 125.36,-27.73 177.22,-211.65 115,-411 -61.37,-198.82 -213.42,-337.71 -339,-310"
           style="display:inline;fill:#ffff00;fill-opacity:1;fill-rule:nonzero;stroke:none"
           id="path22" />
        <path
           d="m 2053.25,1889.25 c -58.92,35.62 -59.41,176.99 -1,316 58.55,138.77 153.88,222.58 213,187 59.08,-35.41 59.57,-176.79 1,-316 -58.39,-138.56 -153.72,-222.38 -213,-187"
           style="display:inline;fill:#000000;fill-opacity:1;fill-rule:nonzero;stroke:none"
           id="path24" />
        <path
           d="m 1710.25,2101.25 c -30.25,0 -32.75,17.5 -8,33 25.25,14.5 42.75,24.5 20,32 -22.25,7.5 5,25 5,25 0,0 122.75,2.5 170,3 49.07,-0.5 528.42,9.5 578,10 42.25,-0.5 170,-3 170,-3 0,0 14.75,5 15,-17 -0.25,-23 -37.75,-20.5 -23,-38 15.25,-17.5 -15,-35 -15,-35"
           style="display:inline;fill:#ffff00;fill-opacity:1;fill-rule:nonzero;stroke:none"
           id="path26" />
        <path
           d="m 2622.25,2111.25 c -39.75,0 -714.75,-10 -755,-10"
           style="display:inline;fill:#ffff00;fill-opacity:1;fill-rule:nonzero;stroke:none"
           id="path28" />
        <path
           id="path30"
           style="display:inline;fill:#ffff00;fill-opacity:1;fill-rule:nonzero;stroke:none"
           d="m 2162.2451,2794.2493 c -19.75,4.5 -31.9922,-22.9981 -31.9922,-22.9981 -0.25,-45.0599 7.2451,-1030.002 4.9951,-1087.0019 -2.75,-58 2.0069,-145.0049 2.0069,-145.0049 0,0 17.7402,-5.4883 24.9902,12.0117 7.75,17.5 10.2481,5 22.9981,-15 12.2499,-20 14.7617,-27.5098 27.0117,-20.0098 12.75,7.5 17.9883,0 17.9883,0 0,0 -0.25,105.0001 0,135 -0.25,60 0,1110.0001 0,1110.0001 0,0 -7.7432,17.5078 -27.9932,13.0078 -19.75,-5.5 -15.0249,13.3151 -40.0049,19.9951 z" />
      </g>
      <g
         id="g1421"
         inkscape:label="R"
         style="display:inline">
        <path
           d="m 2390.25,1261.25 v -410 h -73 v 410 h 73"
           style="fill:#000000;fill-opacity:1;fill-rule:nonzero;stroke:none"
           id="path130" />
        <path
           d="m 2367.25,1261.25 c 0,0 151.5,0 197,0 44.5,0 85.57,-48.71 85,-106 -1.75,-67.75 -14.25,-86.5 -49,-111 -35.25,-25.5 -40.25,-3 -20,-45 19.75,-43 71,-148 71,-148 h -71 c 0,0 -75.25,150 -98,163 -22.25,12 -95,7 -95,7"
           style="fill:#000000;fill-opacity:1;fill-rule:nonzero;stroke:none"
           id="path132" />
        <path
           d="m 2392.25,1191.25 c 0,0 105.25,0 140,0 35.25,0 36.5,-17.5 37,-47 -0.5,-30.5 -6.75,-45.5 -37,-45 -29.75,-0.5 -140,0 -140,0 v 92"
           style="display:inline;fill:#ffff00;fill-opacity:1;fill-rule:nonzero;stroke:none"
           id="path134" />
      </g>
      <g
         id="g1425"
         inkscape:label="O"
         style="display:inline">
        <path
           d="m 1897.25,1164.25 c 0.25,54.5 60.25,95.75 110,96 50.25,-0.25 65.25,-1.5 118,-1 52.25,-0.5 99.75,-43 100,-90 -0.25,-48 4.75,-153 2,-208 -2.25,-55 -29.75,-107.5 -105,-110 -44.79,-1.5 -59.75,0 -120,0 -59.75,0 -104.75,55 -105,113 0.25,57 0,200 0,200"
           style="fill:#000000;fill-opacity:1;fill-rule:nonzero;stroke:none"
           id="path126" />
        <path
           d="m 1969.25,1135.25 c -0.5,31.39 21.41,53.5 48,54 27.09,-0.5 67.07,-0.5 95,0 28.43,-0.5 47.75,-23.18 48,-50 -0.25,-27.82 -0.25,-128.83 0,-160 -0.25,-46.57 -13.32,-58.824 -60,-60 -24.43,-1.363 -38.04,-0.5 -70,0 -45.79,-0.5 -61.5,16.84 -61,63 -0.5,33.32 0,153 0,153"
           style="display:inline;fill:#ffff00;fill-opacity:1;fill-rule:nonzero;stroke:none"
           id="path128" />
      </g>
      <g
         id="g1433"
         inkscape:label="T"
         style="display:inline">
        <path
           d="m 1716.25,1260.25 v -410 h -75 v 410 h 75"
           style="fill:#000000;fill-opacity:1;fill-rule:nonzero;stroke:none"
           id="path122" />
        <path
           d="m 1840.25,1187.25 v 72 h -325 v -72 h 325"
           style="fill:#000000;fill-opacity:1;fill-rule:nonzero;stroke:none"
           id="path124" />
      </g>
      <g
         id="g1441"
         inkscape:label="A"
         style="display:inline">
        <path
           d="m 1127.25,849.25 c 0.25,79.5 0.25,175.75 0,246 0.25,33.5 -2.25,93.5 38,129 39.75,34.5 77.25,34.5 137,35 52.77,-0.5 91.4,3.27 133,-35 39.75,-38 32.5,-80.49 34,-129 0.75,-61.5 0,-246 0,-246 h -80 v 155 h -179 v -155 h -83"
           style="fill:#000000;fill-opacity:1;fill-rule:nonzero;stroke:none"
           id="path112" />
        <path
           d="m 1211.25,1094.25 h 176 c 0,0 5.25,62 -18,81 -19.97,15.13 -113.83,18.08 -137,0 -26.89,-21.96 -21,-81 -21,-81"
           style="fill:#ffff00;fill-opacity:1;fill-rule:nonzero;stroke:none"
           id="path114" />
      </g>
      <path
         d="m 1457.25,1641.25 c 0,0 5.27,30.97 -10,55 -39.33,63.33 -101,60 -153,60 -41.42,0 -98,-5 -130,-36 -22.88,-21.77 -31.75,-55.25 -32,-84 0.25,-28.75 6.5,-65 29,-87 29.17,-29.67 50,-36.75 91,-38 31.48,-0.95 57.64,0 85,0 30.67,0 45.25,-21.45 45,-51 0.25,-22.75 -20.19,-41.5 -45,-41 -34.75,-0.5 -59.75,-0.5 -100,0 -33.75,-0.5 -42,50 -42,50 h -66 c 0,0 -4.21,-44.57 6,-60 15.93,-26.38 27.25,-46.75 54,-58 34.06,-14.81 57,-15 97,-15 40,0 101.25,-1.25 129,21 27.25,22.75 43.5,47.75 50,79 6,31.25 2.62,75.02 -18,106 -16.32,25.67 -52.52,46.5 -82,47 -37.75,-0.5 -74,-0.5 -108,0 -22.25,-0.5 -49.75,17 -50,47 0.25,30 23.59,45 49,45 35,0 68.75,1.25 99,0 48.01,-2.01 45,-40 45,-40 h 57"
         style="display:inline;fill:#000000;fill-opacity:1;fill-rule:nonzero;stroke:none"
         id="path136"
         inkscape:label="S" />
      <g
         id="g1429"
         inkscape:label="Y"
         style="display:inline">
        <path
           d="m 1327.25,2064.25 v -215 h -70 v 215 h 70"
           style="fill:#000000;fill-opacity:1;fill-rule:nonzero;stroke:none"
           id="path120" />
        <path
           d="m 1257.25,2000.25 -135,259 h 82 l 90,-160 90,160 h 80 l -137,-259 h -70"
           style="display:inline;fill:#000000;fill-opacity:1;fill-rule:nonzero;stroke:none"
           id="path138" />
      </g>
      <g
         id="g1437"
         inkscape:label="L"
         style="display:inline">
        <path
           d="m 1202.25,2354.25 v 405 h -80 v -405 h 80"
           style="fill:#000000;fill-opacity:1;fill-rule:nonzero;stroke:none"
           id="path116" />
        <path
           d="m 1457.25,2429.25 v -75 h -335 v 75 h 335"
           style="fill:#000000;fill-opacity:1;fill-rule:nonzero;stroke:none"
           id="path118" />
      </g>
    </g>
  </g>
</svg>
